<svg width="309" height="309" viewBox="0 0 309 309" fill="none" xmlns="http://www.w3.org/2000/svg">
<circle cx="154.5" cy="154.5" r="154.5" fill="#FFBD12"/>
<g clip-path="url(#clip0_4033_3283)">
<path fill-rule="evenodd" clip-rule="evenodd" d="M226.796 295.477C226.283 290.715 225.968 285.919 225.786 281.133C225.605 276.353 225.842 271.514 225.946 266.732C226.158 257.003 226.502 247.252 225.728 237.539C224.996 228.359 223.317 219.243 220.666 210.422C219.375 206.127 218.015 201.658 215.892 197.689C213.757 193.698 210.375 191.041 206.661 188.604C202.706 186.009 198.783 183.365 194.844 180.746C191.537 178.548 185.586 175.989 182.873 173.051C180.018 169.958 179.482 162.293 177.58 158.63C175.729 155.062 170.488 152.735 166.452 152.735C159.772 152.735 154.711 152.393 149.219 158.574C146.478 161.659 148.659 164.777 145.786 167.737C143.146 170.458 136.392 173.255 132.988 174.834C128.911 176.726 124.732 178.396 120.492 179.883C116.167 181.401 111.732 182.532 107.383 183.964C103.214 185.336 97.7695 190.995 94.5329 193.988C91.5238 196.772 90.7771 196.46 88.4894 199.841C83.4689 207.262 78.4428 214.768 74.4448 222.803C72.4534 226.805 70.5251 231.015 69.8026 235.459C69.0319 240.2 69.7961 244.781 71.0459 249.371C72.3182 254.042 76.3582 258.489 77.6744 263.149C78.281 265.296 76.199 267.639 77.1566 269.662C77.6349 270.673 78.2373 271.572 78.923 272.453C79.4514 273.131 81.512 272.981 81.7786 273.811C82.048 274.65 80.5572 276.39 80.535 277.258C80.5035 278.501 80.4541 279.743 80.4133 280.985L80.1725 288.328C80.0142 293.154 79.856 297.979 79.6978 302.805C79.646 304.38 79.5706 305.919 79.9481 307.414C79.8118 307.287 79.6823 307.15 79.564 306.995C79.2178 306.543 78.4834 306.926 78.7773 307.456C79.2678 308.338 79.9732 308.96 80.8021 309.406C81.7652 310.827 227.629 313.999 228.347 309.846C228.75 307.516 228.017 305.022 227.724 302.706C227.419 300.295 227.056 297.894 226.796 295.477Z" fill="white"/>
<path fill-rule="evenodd" clip-rule="evenodd" d="M78.6256 235.468C78.9824 234.445 80.6146 234.888 80.2553 235.917C78.408 241.21 79.7184 246.971 81.7156 252.024C82.1163 253.038 80.4811 253.473 80.0858 252.473C77.985 247.158 76.6853 241.027 78.6256 235.468ZM91.0122 265.704C96.222 266.437 101.436 266.889 106.682 267.255C106.916 267.272 107.119 267.236 107.295 267.16C107.138 269.563 107.011 271.968 106.912 274.373C105.482 274.333 104.022 274.428 102.604 274.39C100.752 274.339 98.9009 274.246 97.0523 274.105C93.4734 273.834 89.9009 273.403 86.3622 272.807C85.0396 272.585 83.36 272.45 81.8537 272.01C80.4298 271.594 79.1622 270.905 78.4967 269.607C77.9305 268.508 77.8269 267.162 77.8269 265.947C77.8269 265.11 77.9706 264.26 78.0572 263.417C78.165 263.341 78.2622 263.25 78.3403 263.149C79.9122 263.645 81.5431 263.994 83.1403 264.332C85.741 264.886 88.3798 265.334 91.0122 265.704ZM88.0737 246.162C88.1024 247.777 88.5492 249.244 89.4186 250.604C90.0068 251.525 88.5433 252.372 87.9592 251.458C86.9358 249.856 86.4173 248.059 86.3835 246.162C86.3641 245.071 88.0542 245.075 88.0737 246.162ZM221.622 263.784C222.327 263.824 223.037 263.848 223.745 263.886C224.369 264.42 225.233 264.693 226.022 264.523C226.049 264.592 226.074 264.668 226.096 264.757C226.236 265.3 226.306 265.883 226.386 266.437C226.466 266.982 226.527 267.532 226.57 268.081C226.591 268.358 226.724 268.984 226.555 269.225C226.403 269.442 226.067 269.423 225.834 269.451C225.209 269.518 224.575 269.55 223.946 269.603C222.756 269.707 221.567 269.81 220.38 269.914C219.215 270.015 217.937 269.984 216.799 270.29C216.604 268.005 216.427 265.721 216.262 263.434C218.026 263.694 219.87 263.687 221.622 263.784ZM73.7092 259.995C74.4191 261.367 75.074 262.715 76.4325 263.539C76.6099 263.645 76.8085 263.702 77.0113 263.717C76.8592 264.37 76.7641 265.038 76.6796 265.655C76.4937 267.014 76.4536 268.419 76.7937 269.759C77.1254 271.063 77.6747 272.228 78.7522 273.063C79.2529 273.452 79.8001 273.748 80.3747 273.982C80.2775 274.255 80.2205 274.526 80.2501 274.824C80.1127 275.514 80.0219 276.218 79.9226 276.892C79.705 278.389 79.4874 279.887 79.3163 281.392C78.974 284.385 78.7057 287.378 78.4796 290.381C78.2536 293.376 78.0909 296.375 77.9557 299.376C77.886 300.91 77.8247 302.445 77.7677 303.981C77.7106 305.56 77.455 307.175 78.1522 308.64C78.7141 309.823 80.6134 309.755 81.1965 308.64C81.936 307.221 81.7184 305.537 81.7374 303.981C81.7564 302.517 81.7818 301.05 81.8134 299.585C81.8768 296.586 81.9698 293.589 82.0437 290.59C82.1156 287.663 82.2043 284.738 82.2634 281.811C82.293 280.278 82.2951 278.746 82.3036 277.214C82.3078 276.364 82.3437 275.458 82.2803 274.572C82.8085 274.696 83.3409 274.802 83.867 274.91C87.8832 275.734 91.9416 276.334 96.0254 276.706C98.0768 276.892 100.135 277.023 102.192 277.098C103.705 277.152 105.273 277.258 106.809 277.201C106.688 280.87 106.633 284.541 106.639 288.213C106.644 290.861 106.68 293.509 106.745 296.157C106.781 297.55 106.811 298.943 106.853 300.335C106.872 300.961 106.872 301.593 106.914 302.216C106.927 302.411 106.954 302.599 106.99 302.785C106.851 303.18 106.735 303.571 106.639 303.937C106.175 305.712 106.175 307.418 106.382 309.227C106.559 310.761 107.85 312.184 109.555 311.645C109.832 311.558 110.109 311.467 110.383 311.374C112.893 311.66 115.418 311.725 117.963 311.774C121.684 311.846 125.406 311.869 129.129 311.888C136.43 311.926 143.734 311.945 151.037 311.966C165.714 312.008 180.391 312.048 195.068 312.091C199.141 312.104 203.214 312.114 207.287 312.127C209.396 312.133 211.5 312.135 213.606 312.216C214.589 312.254 215.573 312.306 216.556 312.321C217.694 312.34 218.702 312.012 219.79 311.715C220.405 311.543 220.648 310.926 220.517 310.404C221.501 310.639 222.695 310.14 223.031 309.031C223.276 308.225 223.185 307.352 222.82 306.606V306.604C222.114 302.147 221.218 297.71 220.515 293.251C219.744 288.367 219.002 283.472 218.349 278.569C217.859 274.866 217.456 277.491 217.107 273.771C218.626 273.889 220.344 273.426 221.848 273.23C222.928 273.09 224.016 272.978 225.097 272.83C225.017 273.921 225.04 275.033 225.011 276.079C224.954 278.156 224.979 280.225 225.032 282.303C225.133 286.312 225.359 283.979 225.72 287.971C226.086 291.993 226.534 296.001 227.077 300.004C227.356 302.064 227.654 304.123 227.968 306.179C228.114 307.139 228.264 308.096 228.418 309.056C228.602 310.186 228.661 311.258 229.509 312.108C230.153 312.752 231.469 312.697 231.896 311.799C232.437 310.664 232.192 309.692 231.991 308.5C231.828 307.542 231.672 306.585 231.518 305.628C231.188 303.575 230.875 301.521 230.582 299.465C230.016 295.502 229.481 291.533 229.004 287.559C228.522 283.554 228.023 285.894 227.55 281.889C227.311 279.868 227.073 277.852 226.794 275.838C226.652 274.802 226.563 273.699 226.378 272.632C226.437 272.623 226.496 272.613 226.555 272.602C227.84 272.367 228.936 271.642 229.259 270.319C229.568 269.053 229.2 267.597 228.94 266.355C228.718 265.296 228.518 263.945 227.837 263.038C230.237 259.98 231.798 256.132 232.794 252.432C233.878 248.401 234.332 244.194 234.428 240.029C234.54 235.203 234.176 230.406 233.35 225.687C233.33 224.687 233.284 223.688 233.21 222.69C232.483 212.892 229.432 201.295 219.761 196.717C219.723 196.698 219.682 196.681 219.642 196.664C218.884 195.757 217.937 194.941 217.173 194.179C215.818 192.826 214.403 191.532 212.903 190.34C209.932 187.98 206.675 186.094 203.288 184.397C199.863 182.679 196.388 181.066 193.042 179.192C190.126 177.556 187.502 175.586 185.011 173.362C182.212 170.862 180.22 167.491 179.438 163.812C179.398 163.619 179.113 163.672 179.109 163.856C178.904 170.6 183.454 176.56 188.692 180.331C194.954 184.835 202.515 186.967 208.866 191.334C210.444 192.418 211.92 193.642 213.325 194.941C211.173 194.722 208.982 194.861 206.964 195.457C206.17 195.408 205.371 195.394 204.575 195.356C202.754 195.265 200.93 195.18 199.107 195.1C195.391 194.935 191.673 194.785 187.954 194.654C180.659 194.396 173.362 194.202 166.065 194.073C151.401 193.813 136.718 193.762 122.056 194.187C118.08 194.301 97.1726 193.509 95.2374 193.732C98.0832 191.268 101.206 189.256 104.639 187.601C108.934 185.536 113.373 184.158 117.959 182.899C127.405 180.305 137.214 177.805 144.773 171.217C146.651 169.579 148.32 167.696 149.687 165.61C150.993 163.619 152.444 161.07 152.48 158.642C152.506 156.918 150.106 156.29 149.252 157.767C148.722 158.682 148.46 159.686 148.027 160.646C147.596 161.597 147.085 162.514 146.516 163.391C145.399 165.116 144.013 166.654 142.504 168.043C139.289 171.006 135.393 173.177 131.362 174.819C122.21 178.545 112.2 180.117 103.528 185.029C99.7332 187.178 96.1015 190.144 93.8219 193.927C93.4543 193.984 93.0888 194.052 92.7233 194.128C92.9958 193.783 93.2705 193.439 93.5472 193.096C93.7289 192.872 93.448 192.577 93.2261 192.775C88.9141 196.613 84.9423 200.758 81.3423 205.276C77.8987 209.601 74.6874 214.132 72.4141 219.196C68.3282 228.293 67.4282 238.697 69.5388 248.424C70.1134 251.074 70.9247 253.669 71.9578 256.178C72.4902 257.474 73.067 258.75 73.7092 259.995Z" fill="black"/>
<path fill-rule="evenodd" clip-rule="evenodd" d="M166.798 70.2808C178.794 70.2808 193.819 83.9701 198.216 89.7955C201.913 94.6932 201.39 119.924 201.39 134.892C201.39 138.022 199.975 143.946 199.462 146.941C197.58 157.913 189.383 167.115 173.158 167.115C159.946 167.115 149.78 162.929 139.948 152.222C137.705 149.779 126.752 158.524 124.511 155.375C118.66 155.375 113.767 100.682 125.256 84.2772C136.744 67.8726 154.802 70.2808 166.798 70.2808Z" fill="white"/>
<path fill-rule="evenodd" clip-rule="evenodd" d="M130.744 74.1333C137.676 67.8245 146.91 64.7895 156.227 65.0135C161.052 65.1297 165.861 66.0491 170.418 67.6237C172.697 68.4141 174.905 69.4455 177.016 70.6122C177.776 71.0316 178.477 71.5231 179.152 72.0451L179.321 72.1762H179.323C181.133 72.8271 182.749 73.9959 184.216 75.3633C187.154 75.1287 190.116 75.3929 192.958 76.2996C196.913 77.5635 200.574 79.8778 203.145 83.1643C206.14 86.9904 207.136 91.6314 206.781 96.4224L206.715 97.2363C206.364 101.468 205.734 106.912 202.262 109.693C201.998 109.904 201.706 110.065 201.404 110.162C203.642 113.996 205.478 118.253 206.576 122.552C210.77 138.971 207.546 156.095 202.503 171.921C202.089 173.225 200.118 174.091 199.114 172.817C197.323 170.539 194.72 168.801 191.792 168.476C189.985 168.275 188.187 168.639 186.48 167.819C185.811 167.495 185.164 166.967 184.699 166.324C181.818 167.417 178.714 167.933 175.636 167.806C170.585 167.599 165.185 165.849 161.709 162.011C161.152 161.395 161.01 160.703 161.139 160.079C161.575 159.924 162.022 159.808 162.483 159.735C166.89 162.334 171.748 164.07 176.969 164.179C179.985 164.242 182.928 163.82 185.374 161.936C185.903 161.528 186.39 161.076 186.84 160.591C191.954 157.3 195.56 151.71 197.274 145.722C198.871 140.138 198.675 134.324 198.126 128.596L197.836 125.574C197.413 121.138 197.021 116.688 196.912 112.233L196.945 112.232C198.025 112.162 198.033 110.471 196.945 110.541C194.131 110.723 191.338 110.261 188.533 110.462C188.51 109.136 188.414 107.815 188.024 106.536C187.802 105.805 186.529 105.66 186.395 106.536C186.214 107.706 186.148 108.871 186.129 110.047C181.931 109.991 177.736 109.638 173.538 109.783C172.763 108.957 172.517 107.491 172.154 106.472C172.102 106.322 172.049 106.174 171.994 106.024C171.675 107.481 171.224 108.905 170.631 110.3L169.601 110.303C163.758 110.331 157.797 110.506 152.092 111.719C151.695 111.415 151.459 110.883 151.395 110.401C150.981 107.261 150.391 104.205 149.344 101.213L149.194 100.791C149.182 100.756 149.169 100.718 149.156 100.679C148.384 101.925 147.464 103.086 146.46 104.167C145.869 104.804 145.248 105.413 144.612 106.005C143.993 106.692 143.354 107.369 142.735 108.058C142.759 108.183 142.78 108.31 142.797 108.44C142.987 109.87 143.007 111.32 142.868 112.755C142.617 115.35 141.885 117.85 140.708 120.163L140.671 120.395C140.492 121.479 140.238 122.599 139.645 123.415C140.385 124.245 140.956 125.237 141.287 126.339C141.581 127.32 140.225 128.17 139.521 127.367C138.963 126.729 138.342 126.202 137.66 125.781C137.617 125.839 137.539 125.868 137.452 125.819C135.552 124.764 132.326 125.083 130.429 126.077C128.069 127.311 127.148 129.845 127.41 132.413C127.661 134.867 128.735 137.735 130.816 138.992C131.771 139.569 132.514 139.618 133.528 139.341C133.853 139.253 134.255 138.983 134.427 138.849L134.597 138.712C135.262 138.187 135.881 137.827 136.666 137.813C137.468 137.563 138.275 137.91 138.582 138.752L138.601 138.806C138.745 139.235 139.006 139.774 138.949 140.43C138.89 141.131 138.569 141.77 138.09 142.283C138.007 142.372 137.918 142.461 137.828 142.543C146.088 151.49 147.149 165.43 142.913 176.606C142.729 177.097 142.533 177.581 142.328 178.061C141.62 179.705 138.895 179.195 138.548 177.566C138.445 177.078 138.33 176.592 138.206 176.11C137.977 175.219 137.714 174.337 137.418 173.468L137.306 173.142C137.054 172.424 136.82 171.699 136.566 170.98L136.541 170.898C136.531 170.866 136.521 170.828 136.509 170.786L136.08 171.722L134.777 174.548C134.167 175.867 132.229 175.15 132.157 173.879L132.155 173.836C132.149 173.601 132.14 173.369 132.126 173.138C132.033 171.411 131.735 169.733 131.261 168.091L131.091 168.303C128.548 171.448 125.565 174.395 121.471 175.121C120.445 175.302 119.283 174.229 119.988 173.191C120.28 172.762 120.561 172.322 120.827 171.876C120.597 171.769 120.379 171.657 120.178 171.542C118.626 170.67 117.333 169.427 116.264 168.017C113.997 165.029 113.185 161.267 112.987 157.585C112.776 153.694 113.118 149.592 114.18 145.838C114.641 144.215 115.264 142.657 115.985 141.146C115.934 141.011 115.885 140.876 115.837 140.74C115.059 138.572 114.421 136.355 113.891 134.112C112.822 129.585 112.247 124.914 112.178 120.263C112.051 111.929 113.487 103.462 116.515 95.691C119.642 87.6766 124.345 79.956 130.744 74.1333ZM126.85 146.994C126.276 146.09 124.84 146.905 125.373 147.815L125.393 147.848C126.303 149.283 126.73 150.915 127.254 152.515C127.59 153.544 129.223 153.104 128.883 152.064L128.77 151.717C128.249 150.095 127.773 148.446 126.85 146.994ZM131.851 129.731L132.232 129.546C133.435 128.972 134.49 128.581 135.911 129.082C137.815 129.752 139.853 131.885 138.567 133.954C138.094 134.717 137.253 135.021 136.387 134.841C134.926 134.539 134.549 133.223 133.808 132.143L133.681 131.96C133.229 131.307 132.658 130.404 131.906 130.147C131.734 130.088 131.663 129.822 131.851 129.731ZM132.924 85.8001L133.047 85.6899C133.865 84.9671 132.665 83.7751 131.851 84.4937C128.129 87.7844 126.836 92.935 124.905 97.3248C124.472 98.3118 125.927 99.1741 126.365 98.1786C128.207 93.9898 129.429 88.9789 132.924 85.8001ZM177.658 84.3605C176.685 83.9221 175.834 85.3381 176.77 85.8043L176.805 85.821C180.092 87.3068 181.49 90.6715 182.83 93.7952C183.257 94.7928 184.712 93.9326 184.29 92.9435L184.048 92.383C182.65 89.1638 181.02 85.8825 177.658 84.3605ZM182.81 82.3273C181.779 81.9701 181.338 83.6018 182.36 83.9589C185.147 84.929 187.059 87.0214 188.671 89.4139C189.275 90.31 190.739 89.4646 190.129 88.56C188.257 85.7829 186.034 83.4517 182.81 82.3273Z" fill="black"/>
<path fill-rule="evenodd" clip-rule="evenodd" d="M177.152 152.274C175.731 151.695 174.464 150.728 173.538 149.493C173.216 149.064 173.132 148.61 173.2 148.196C173.276 147.729 173.552 147.307 173.928 147.023C174.305 146.739 174.777 146.599 175.233 146.67C175.629 146.732 176.024 146.949 176.336 147.4L176.401 147.49C176.952 148.235 177.67 148.847 178.488 149.241C179.276 149.621 180.157 149.798 181.07 149.695C182.807 149.499 184.005 148.559 185.277 147.282C185.435 147.121 185.593 146.955 185.752 146.786C185.852 146.633 185.991 146.535 186.145 146.483C186.317 146.426 186.511 146.429 186.688 146.491C186.859 146.551 187.013 146.664 187.115 146.815C187.213 146.958 187.268 147.135 187.25 147.339C187.134 148.662 186.442 149.842 185.46 150.769C184.37 151.799 182.924 152.511 181.563 152.761C180.063 153.036 178.535 152.839 177.152 152.274ZM182.27 131.866C183.866 132.837 186.296 135.099 184.58 137.504C182.56 139.624 179.651 137.193 178.218 136.093C176.889 135.241 175.396 137.433 176.629 138.428C186.986 146.099 191.189 132.12 183.077 130.726C182.184 130.572 181.852 131.566 182.27 131.866ZM163.71 122.943C163.886 120.754 167.219 120.257 167.55 122.423C167.847 124.363 167.498 126.146 166.624 127.893C165.789 129.561 163.691 128.783 163.533 127.263C163.32 125.226 163.601 124.305 163.71 122.943ZM189.076 121.974C189.54 121.365 190.211 120.95 191.015 121.185C193.526 121.919 192.786 125.485 191.904 127.221C191.425 128.163 189.876 128.402 189.176 127.572C188.035 126.219 187.489 123.516 188.939 122.183C188.978 122.114 189.022 122.044 189.076 121.974ZM166.589 113.366L166.985 113.296C168.212 113.084 169.738 112.88 170.606 113.867C171.066 114.39 171.225 115.363 170.606 115.864C169.517 116.745 168.314 116.403 167.01 116.478C165.935 116.54 164.902 116.718 163.866 117.014C161.595 117.663 159.744 118.849 157.804 120.151C157.549 120.322 157.289 119.996 157.411 119.758C158.531 117.563 160.701 115.761 162.875 114.662C164.035 114.075 165.305 113.589 166.589 113.366ZM186.787 112.383L187.09 112.445C190.394 113.136 194.686 114.516 196.251 117.762C196.31 118.221 196.247 118.319 196.196 118.383L196.179 118.405C196.137 118.46 196.103 118.535 195.904 118.598C195.849 118.585 195.793 118.571 195.737 118.556C195.02 118.368 194.453 118.109 193.903 117.84L193.308 117.547C192.617 117.208 191.92 116.881 191.181 116.64C189.604 116.126 187.983 115.763 186.336 115.57C185.979 115.528 185.636 115.407 185.364 115.201C185.107 115.005 184.91 114.733 184.821 114.373C184.705 113.906 184.738 113.552 184.988 113.131C185.177 112.815 185.446 112.596 185.755 112.47C186.071 112.341 186.43 112.311 186.787 112.383Z" fill="black"/>
<path fill-rule="evenodd" clip-rule="evenodd" d="M200.085 133.758C198.663 135.67 196.026 136.279 193.593 136.068C188.347 135.563 186.696 129.603 186.524 124.97C190.042 125.96 186.227 118.949 198.252 118.178C202.491 117.825 201.322 120.386 203.195 122.257C203.157 126.184 202.503 130.452 200.085 133.758ZM175.099 129.245C172.001 143.755 155.041 140.304 153.26 127.224C154.905 126.063 154.471 123.194 156.515 122.155C159.754 120.085 163.804 120.173 167.482 120.222C172.184 120.545 173.524 122.494 175.939 124.619C175.823 126.039 175.487 127.722 175.099 129.245ZM206.804 115.775C206.63 115.746 206.456 115.719 206.282 115.693C206.146 115.616 205.986 115.557 205.801 115.521C205.377 115.413 204.957 115.341 204.537 115.302C198.509 113.945 184.564 115.872 183.988 121.018C182.069 121.659 180.408 121.085 178.183 121.142C176.489 114.06 147.211 115.06 145.803 119.329C145.798 119.328 145.792 119.326 145.787 119.325C144.434 118.906 142.439 119.007 140.891 118.94C137.584 118.871 134.274 119.166 131.039 119.864C124.981 120.827 116.713 121.954 120.926 129.522C120.927 129.524 120.928 129.525 120.929 129.526L120.929 129.526C121.655 130.27 122.888 129.671 122.933 128.663C121.517 125.077 124.716 124.647 127.178 123.617C133.303 121.415 139.54 121.11 145.875 121.791C146.351 122.352 147.074 122.842 147.839 123.098C152.074 123.801 149.842 126.944 152.52 127.402C152.028 138.358 165.325 144.339 173.03 137.137C176.106 134.128 176.839 129.671 177.553 125.653C177.93 125.568 178.17 125.362 178.31 125.089C179.217 124.183 179.786 123.347 181.58 123.098C183.373 122.849 184.754 123.348 184.941 123.501C184.988 123.596 185.038 123.691 185.097 123.786C185.179 123.928 185.291 124.041 185.417 124.13C183.646 135.041 192.113 141.941 200.661 136.282C204.375 132.787 205.16 127.436 205.315 122.66C205.818 122.356 206.137 121.767 205.963 121.026C205.723 120.006 206.286 119.122 207.183 118.678C208.349 118.102 208.142 115.997 206.804 115.775Z" fill="black"/>
</g>
<defs>
<clipPath id="clip0_4033_3283">
<rect width="240" height="260" fill="white" transform="translate(34 49)"/>
</clipPath>
</defs>
</svg>
