<svg width="309" height="379" viewBox="0 0 309 379" fill="none" xmlns="http://www.w3.org/2000/svg">
<circle cx="154.5" cy="154.5" r="154.5" fill="#F95A2C"/>
<g opacity="0.5">
<path fill-rule="evenodd" clip-rule="evenodd" d="M102.682 186.767C100.728 187.86 99.1055 188.608 97.577 189.118L95.3292 189.868L97.4433 190.938C98.8792 191.664 100.245 192.591 101.618 193.771L102.677 194.682L103.188 193.383C103.86 191.678 104.187 189.737 104.16 187.617L104.138 185.952L102.682 186.767ZM196.572 192.275C194.743 195.57 192.535 198.814 190.399 201.951C185.686 208.875 180.812 216.035 179.312 224.597C179.137 225.661 179.061 229.409 179.061 229.409L180.458 228.841C185.124 226.945 190.073 225.534 194.86 224.169C196.71 223.642 198.623 223.097 200.498 222.53C201.262 222.326 202.021 222.087 202.756 221.857C204.538 221.297 206.222 220.769 207.992 220.679L208.531 220.652L208.801 220.185C211.24 215.968 209.411 211.949 207.316 208.193C206.058 205.455 204.44 202.882 202.875 200.394C201.252 197.815 199.575 195.148 198.349 192.358L197.544 190.525L196.572 192.275ZM106.549 227.207C109.322 230.107 111.898 233.055 114.205 235.967L115.957 235.163C115.11 230.862 112.481 227.832 107.683 225.626L106.549 227.207ZM199.313 292.009C199.036 292.009 198.775 292.116 198.58 292.311C198.382 292.509 198.274 292.776 198.274 293.062L199.313 293.059V292.009ZM83.9263 363.728C82.2972 360.936 82.0578 356.554 84.4994 354.178C83.6782 349.047 85.2915 343.313 88.8644 339.227L88.8727 339.24C94.1776 331.305 94.5674 328.478 90.6914 319.609C83.7645 319.344 76.6294 319.265 69.8659 317.649L70.1189 316.139C69.8686 316.073 68.5897 315.737 68.3151 315.667C68.3518 315.948 68.5425 317.23 68.5378 317.486C68.2219 317.831 67.4582 318.152 67.3162 317.473C63.0615 299.309 59.2536 281.506 55.1161 263.37C50.7858 245.065 42.0772 215.788 63.3941 205.7L62.954 203.824C61.7769 203.825 61.3039 202.543 60.7642 200.733C58.359 194.258 63.0358 187.909 67.4093 183.904C73.3873 177.927 78.9022 171.29 84.2372 164.875C99.4554 146.396 120.162 121.736 146.631 125.926L146.542 127.014C150.682 127.534 155.005 128.628 159.198 127.866C173.511 125.389 189.084 130.992 197.887 142.496L198.211 140.352C198.241 140.149 198.313 139.962 198.634 139.962C199.054 139.947 199.275 140.29 199.43 140.606C214.625 146.605 220.919 166.13 225.774 179.513C226.394 181.775 226.219 182.444 226.165 182.577L225.284 183.102C234.441 195.271 239.473 209.907 243.79 223.785C245.217 227.485 245.366 230.048 242.983 232.286C258.695 241.716 271.024 256.413 264.053 273.169C254.955 289.472 230.865 299.817 212.77 309.181C205.584 313.07 195.133 315.14 188.521 321.508C188.079 322.16 187.445 322.795 187.061 322.743C183.993 323.197 179.425 304.051 180.119 302.517C176.88 303.674 173.276 303.613 169.888 304.217C170.191 304.883 171.186 305.785 170.442 306.526C170.492 308.775 170.146 311.205 169.651 313.497C173.717 312.846 173.625 314.977 169.712 313.849C169.606 314.843 169.335 317.374 169.231 318.334C170.399 317.821 172.723 317.461 173.537 318.263C173.204 319.332 170.324 318.326 169.215 318.643C168.566 323.449 168.354 328.175 167.899 332.969C171.361 336.263 176.769 337.041 179.858 340.604C182.476 343.316 182.098 347.866 179.027 350.048C180.908 352.251 179.403 355.909 176.657 356.507C172.915 357.379 169.004 356.173 165.315 355.159C159.182 353.142 152.76 349.997 145.682 345.546C142.882 343.804 140.796 341.067 139.805 337.836C132.624 315.729 130.705 300.707 134.095 293.167C136.029 291.708 138.185 292.609 139.971 291.811C140.822 291.432 141.589 290.921 142.208 289.109C132.892 288.195 119.31 289.893 111.842 285.434L112.105 284.875C111.415 284.436 109.9 282.596 109.324 282.005C110.363 294.49 111.198 307.298 111.611 319.738C112.981 322.04 114.145 324.422 115.422 327.08C116.31 327.951 117.864 329.444 116.952 330.433C116.952 330.433 124.62 348.368 126.963 357.434C129.194 357.528 130.099 361.303 130.014 363.81C129.675 368.373 123.812 368.857 118.672 369.305C115.156 369.673 111.54 369.864 107.977 369.864C101.541 369.869 85.4489 369.427 83.9263 363.728Z" fill="white"/>
<path fill-rule="evenodd" clip-rule="evenodd" d="M175.161 301.626C172.63 302.221 170.077 302.714 167.531 303.245C166.878 303.531 163.593 303.578 164.192 304.648C164.188 304.651 164.187 304.654 164.183 304.656C164.852 305.17 165.758 304.879 166.564 304.946C160.302 307.505 156.008 302.232 157.16 296.212C157.324 295.138 157.536 293.914 158 292.932C158.246 292.492 160.012 289.098 160.323 290.256C160.078 290.403 160.77 290.463 160.674 289.938C182.176 289.7 176.882 279.833 178.922 300.785C177.658 300.881 176.395 301.336 175.161 301.626M169.935 310.774C169.817 311.298 169.686 311.834 169.533 312.353C165.327 313.082 162.233 315.212 168.894 314.811C168.702 315.596 168.522 316.384 168.351 317.175C167.527 317.491 164.533 318.493 164.686 319.45C165.724 319.682 166.857 319.253 167.923 319.298C167.23 323.878 166.218 328.564 166.311 333.207C166.299 334.735 168.638 335.024 168.938 333.508C171.771 337.66 180.315 339.282 179.505 345.349C179.053 346.589 178.461 347.434 177.19 347.479C176.288 347.712 175.28 348.775 175.799 349.725L175.776 349.733C175.874 350.592 176.858 350.902 177.502 351.149C178.144 351.647 178.167 352.45 177.658 353.2C175.167 355.819 168.065 353.209 164.977 352.348C158.711 350.176 152.788 347.032 147.138 343.591C144.489 342.069 142.668 339.518 141.806 336.619C137.922 322.82 132.883 308.177 135.168 293.743C136.157 292.337 138.301 292.593 139.696 291.849C137.389 300.345 141.213 309.167 142.769 317.544C145.981 332.627 148.512 344.657 165.163 349.69C167.41 350.16 172.253 351.859 173.92 349.976C174.45 349.469 174.397 348.622 173.92 348.106C173.077 346.981 171.683 347.116 170.425 346.988C167.166 346.582 163.977 345.594 161.07 344.067C154.608 340.882 150.117 334.738 148.975 327.656C147.036 319.682 145.295 311.643 143.03 303.752C141.479 298.385 138.947 293.713 144.554 289.76C148.348 289.872 152.146 289.976 155.942 289.989C155.007 291.556 153.973 293.532 154.5 295.39C152.185 300.627 155.174 307.606 160.94 308.942C164.131 309.627 167.443 308.811 170.388 307.465C170.342 308.571 170.201 309.641 169.935 310.774M110.805 285.123C110.789 284.909 110.772 284.693 110.756 284.477C111.048 284.798 111.384 285.087 111.744 285.347C111.434 285.268 111.123 285.187 110.805 285.123M111.363 320.488C111.667 321.581 112.006 322.664 112.375 323.738C106.899 322.159 99.5979 320.848 95.0465 325.134C94.3968 323.386 93.6217 321.729 92.5352 320.233C98.0763 319.605 103.659 319.951 109.199 319.389C109.608 320.161 110.543 320.62 111.363 320.488M94.4241 333.098C94.4439 333.042 94.4654 332.986 94.4853 332.931C94.7974 332.892 95.1074 332.855 95.4177 332.814C95.0854 332.905 94.7548 332.999 94.4241 333.098M113.716 327.546C113.923 328.251 114.469 328.686 115.021 328.733C115.566 329.327 115.782 330.225 116.511 330.632C119.27 339.737 122.98 348.583 124.85 357.948C112.063 362.078 100.077 362.314 87.2093 358.15C87.5184 357.847 87.6639 357.44 87.6705 356.988C87.6786 356.996 87.6885 357.003 87.6985 357.011C85.9582 348.487 86.9398 345.805 91.3838 338.517C97.3548 338.26 103.344 338.04 109.32 338.218C110.724 338.382 113.447 337.231 112.22 335.557C110.78 333.982 108.517 334.408 106.583 334.511C102.069 334.737 97.566 335.4 93.2651 336.815C93.7171 335.857 93.8575 334.717 94.2209 333.701C98.3901 333.229 102.601 333.119 106.783 333.466C108.342 333.612 110.178 334.359 111.527 333.274C113.937 329.093 96.8765 331.385 94.9152 331.852C95.561 330.339 96.2498 328.769 95.955 327.072C100.254 323.695 109.266 324.862 113.716 327.546M126.366 360.912C126.71 361.152 127.15 361.141 127.522 360.976C128.383 363.054 127.785 365.179 125.402 365.667C121.059 366.683 116.533 366.873 112.092 367.133C107.365 367.318 102.621 367.181 97.9129 366.734C90.3571 366.508 83.6439 364.387 83.9524 355.542C84.2548 356.723 84.4522 358.534 85.9727 358.609C97.8389 364.86 113.246 365.454 125.49 360.021C125.701 360.358 125.981 360.643 126.366 360.912M69.7257 316.74C69.7241 316.715 69.7241 316.694 69.7206 316.669C69.8482 316.702 69.9762 316.74 70.1058 316.771C69.9787 316.759 69.853 316.748 69.7257 316.74M103.389 187.3C103.412 189.128 103.16 190.981 102.486 192.692C101.145 191.54 99.6968 190.528 98.113 189.727C99.9528 189.112 101.697 188.246 103.389 187.3M65.2022 203.986C65.45 203.55 64.3471 204.083 64.1755 204.105C64.8942 203.529 64.7477 202.305 63.9145 201.977C59.9626 195.104 64.7565 188.863 69.8235 184.296C78.471 175.765 85.5096 165.828 93.5497 156.75C103.693 158.437 113.49 162.771 121.057 169.751C113.307 176.883 105.224 184.378 95.471 188.641C94.5643 188.202 93.3586 188.322 93.057 189.303C91.9379 189.506 90.8221 189.79 89.7058 189.972C89.6494 189.98 89.6577 190.063 89.7058 190.076C90.8031 190.453 91.934 190.704 93.1065 190.63C104.386 194.549 108.605 206.657 116.629 214.565C123.181 220.284 132.578 224.504 133.524 234.233C135.102 237.379 136.241 240.661 135.823 244.184C135.933 246.935 134.97 249.664 135.756 252.332C134.102 258.642 132.206 265.207 127.467 269.965C127.333 269.932 127.194 269.94 127.065 270.003C127.406 267.894 127.771 265.789 128.132 263.684C129.497 260.9 130.37 257.904 130.942 254.864C131.175 253.333 128.919 253.026 128.824 254.586C127.286 260.055 125.422 266.535 120.073 269.716C121.046 266.041 122.221 262.409 123.841 258.966C124.461 257.82 125.047 256.655 125.62 255.486C126.239 254.22 124.392 253.107 123.706 254.37C121.208 259.119 118.852 264.498 114.094 267.34C115.596 262.386 117.574 257.533 119.45 252.701C119.659 252.205 119.225 251.618 118.757 251.485C118.187 251.322 117.744 251.686 117.537 252.176C116.784 253.917 116.213 255.933 114.998 257.441C114.509 259.113 111.098 261.696 112.832 257.863C114.518 252.933 115.662 247.674 118.081 243.076C118.746 234.735 117.483 229.517 109.423 225.656C108.254 225.072 106.804 224.326 105.402 224.075C101.484 220.186 97.2994 216.573 92.799 213.294C83.6801 206.42 69.8165 200.279 59.3611 207.949C61.0392 206.296 62.987 204.929 65.2022 203.986M104.971 144.616C115.804 134.074 129.916 125.67 145.463 125.667C145.324 125.713 145.299 125.881 145.382 125.99C133.587 175.514 190.22 194.766 200.509 140.428C211.312 147.456 219.503 165.752 223.241 177.842C213.556 178.591 204.842 184.691 199.2 192.323C198.714 191.498 198.608 190.518 199.921 190.758C200.221 190.472 198.849 190.635 198.734 190.869C201.345 185.31 204.031 179.555 205.555 173.488C205.6 173.335 205.383 173.25 205.301 173.381C203.011 177.02 200.604 180.579 198.37 184.252C190.813 199.005 175.729 211.967 176.37 229.586C176.366 229.588 176.365 229.589 176.363 229.591C176.656 230.101 176.539 230.81 176.985 231.256C174.661 241.516 168.867 252 159.457 257.283C152.348 260.55 144.611 256.764 138.475 253.061C138.248 250.894 138.02 248.729 137.792 246.564C138.909 246.284 138.767 244.245 138.8 243.349C139.035 239.574 138.056 235.87 136.044 232.636C135.116 227.835 132.513 223.567 128.75 220.45C126.237 218.308 123.444 216.53 120.885 214.449C114.09 208.945 110.45 200.766 104.443 194.54C105.167 191.928 105.32 189.313 104.546 186.627C108.839 183.864 132.235 168.641 127.892 163.314C127.264 162.382 125.9 162.547 125.541 163.621C125.088 165.079 124.416 166.426 123.304 167.496C115.438 160.381 104.972 155.66 94.2324 155.968C97.6714 152.048 101.224 148.222 104.971 144.616M146.396 126.555C153.107 129.882 161.2 127.581 168.358 127.873C179.368 128.307 190.05 133.708 196.874 142.341C194.203 154.109 187.833 167.491 174.875 170.192C162.032 172.494 150.682 161.517 147.616 149.775C145.56 142.241 145.518 134.275 146.396 126.555M238.813 210.618C239.799 213.272 240.731 215.945 241.637 218.627C242.549 221.359 243.623 224.071 244.37 226.854C244.06 228.186 243.318 229.249 242.576 230.367C237.033 238.684 225.759 237.907 217.563 241.945C216.274 242.555 214.715 243.315 213.585 244.386C212.065 244.951 211.633 246.753 211.875 248.218C213.208 255.628 214.295 262.961 214.617 270.476C214.721 272.55 214.788 274.716 214.138 276.696C211.772 274.797 210.401 263.851 210.337 260.618C210.307 259.805 209.282 259.752 208.998 260.436C205.516 269.936 207.328 280.373 206.896 290.281C201.967 283.128 201.953 274.106 201.685 265.751C201.627 264.414 199.577 264.399 199.589 265.751C199.293 274.544 200.567 284.107 199.605 292.666C195.93 283.637 194.899 273.501 195.85 263.829C194.095 268.931 194.157 275.927 194.741 281.654C193.018 281.845 194.17 286.751 193.648 288.156C183.93 265.888 193.963 252.835 204.645 234.034C206.878 228.584 213.02 218.813 211.262 213.262C210.635 211.311 209.52 209.561 208.473 207.816C205.5 202.894 202.423 198.036 199.569 193.045C200.075 192.646 200.569 192.234 201.057 191.814C207.588 186 213.547 181.466 222.75 180.811C229.906 189.71 234.895 199.95 238.813 210.618M199.568 292.755C199.506 292.934 199.412 292.582 199.596 292.69C199.587 292.711 199.576 292.732 199.568 292.755M208.136 278.143C208.179 274.497 208.133 270.812 208.635 267.2C208.438 270.847 208.301 274.497 208.136 278.143M204.661 220.02C196.531 222.492 188.215 224.46 180.305 227.596C180.718 213.971 191.464 203.798 197.661 192.425C200.105 197.988 204.116 202.775 206.652 208.31C208.598 211.797 210.374 215.539 208.163 219.362C207.005 219.32 205.716 219.751 204.661 220.02M115.114 234.899C112.691 231.881 110.154 228.973 107.489 226.195C111.472 228.026 114.332 230.589 115.205 235.025C115.177 234.983 115.147 234.942 115.114 234.899M159.292 289.973C158.995 290.193 158.876 290.302 158.66 290.469C158.869 290.313 159.052 290.05 159.292 289.973M265.238 253.799C261.44 244.147 253.405 237.023 244.715 231.719C246.897 229.183 245.988 225.929 244.942 223.112C240.585 209.133 235.674 195.001 226.948 183.067C228.781 181.975 224.963 173.569 224.413 171.545C219.734 160.188 212.718 143.823 200.329 139.467C199.681 138.337 197.692 138.277 197.451 139.875C188.136 128.999 173.269 124.251 159.248 126.562C155.051 127.294 151.029 126.209 146.884 125.703C148.929 125.787 150.962 126.033 152.964 126.471C153.121 126.506 153.181 126.287 153.031 126.234C140.361 121.489 126.179 125.305 115.254 132.551C95.718 145.721 83.3689 166.421 66.9552 182.851C62.2795 187.188 57.8092 193.361 59.8379 200.041C60.3913 201.76 60.8987 204.484 63.1756 204.484C40.8833 215.485 50.0951 244.287 54.3705 263.26C58.4836 281.288 62.3546 299.373 66.5731 317.374C66.8955 318.713 68.3407 318.792 69.1622 318.11C76.0071 319.863 83.209 319.986 90.2435 320.244C93.8381 328.786 93.1919 330.773 88.2612 338.373C88.3372 338.36 88.4265 338.35 88.5356 338.347C88.4197 338.354 88.2894 338.39 88.1934 338.467C88.2137 338.439 88.2301 338.423 88.2612 338.373C87.9107 338.434 87.9123 338.573 87.9983 338.601C88.0577 338.55 88.119 338.503 88.185 338.464C88.1816 338.474 88.1816 338.479 88.1917 338.469C88.1403 338.592 88.0529 338.619 87.9983 338.601C84.6684 342.739 82.9566 348.248 83.6764 353.531C81.2385 356.262 81.5136 360.829 83.2762 363.872C85.4623 368.112 90.3147 369.257 94.7042 369.64C100.092 370.346 105.531 370.633 110.964 370.486C113.649 370.414 116.329 370.239 119.001 369.959C123.574 369.465 130.535 369.427 131.223 363.572C131.376 361.394 130.448 356.836 127.993 356.274C125.685 347.443 122.86 338.463 117.653 330.854C119.215 329.52 117.626 327.225 116.455 326.151C115.335 323.823 114.206 321.498 112.898 319.267C113.26 317.924 112.36 317.092 112.538 315.762C112.58 305.648 111.537 295.569 110.833 285.484C117.996 290.497 132.161 288.97 140.951 289.656C139.589 292.703 135.82 289.692 133.482 292.278C128.418 303.178 135.409 326.502 139.078 337.796C140.125 341.21 142.329 344.159 145.374 346.053C151.606 349.972 158.236 353.473 165.248 355.777C169.049 356.828 173.174 358.072 177.112 357.138C180.168 356.399 182.166 352.73 180.513 349.914C183.589 347.154 183.522 342.567 180.835 339.634C177.76 336.027 172.619 335.231 169.155 332.226C169.557 327.892 169.766 323.575 170.316 319.26C171.591 319.198 172.864 319.741 174.06 319.152C176.344 316.955 172.445 316.044 170.6 316.614C170.668 315.985 170.734 315.357 170.802 314.727C174.844 315.627 174.979 311.723 171.101 312.066C171.465 310.225 171.662 308.353 171.656 306.494C172.047 305.909 172.022 305.195 171.701 304.646C174.227 304.263 176.923 304.246 179.371 303.512C179.424 306.686 184.245 329.462 189.464 321.858C192.262 318.905 196.077 317.149 199.812 315.635C204.38 313.756 208.922 311.816 213.407 309.748C226.746 303.593 239.649 296.426 251.56 287.817C263.578 280.102 271.287 268.038 265.238 253.799" fill="black"/>
<path fill-rule="evenodd" clip-rule="evenodd" d="M202.879 105.339C201.77 91.8503 198.391 79.9034 182.517 79.394C175.354 79.4579 168.041 80.9756 161.454 83.7838C145.442 91.7901 140.362 121.046 154.469 132.822C154.385 132.87 154.364 133.007 154.464 133.074C157.378 135.029 160.617 136.638 163.862 137.99C172.504 141.634 182.678 143.216 191.492 139.264C204.942 133.556 205.144 117.673 202.879 105.339V105.339Z" fill="white"/>
<path fill-rule="evenodd" clip-rule="evenodd" d="M229.355 99.0517C229.908 98.5552 230.32 97.904 230.528 97.1737C230.719 96.508 230.732 95.7809 230.53 95.1168C230.314 94.4042 229.846 93.8368 229.951 93.0953C229.963 93.0227 229.977 92.947 230 92.8712C230.404 91.4752 231.398 90.4677 231.043 88.9201C230.942 88.4832 230.753 88.0899 230.49 87.7804C230.519 87.4451 230.545 87.1066 230.566 86.768C231.149 85.4059 231.128 83.7874 230.506 82.4462C230.43 81.7594 230.315 81.0791 230.153 80.4102C230.228 79.8185 230.124 79.1673 229.934 78.6498C229.599 77.7393 229.184 76.8421 228.735 75.9596C228.788 75.7183 228.764 75.4633 228.631 75.2365C228.388 74.8243 228.067 74.4619 227.739 74.1077C227.507 73.6946 227.274 73.2848 227.042 72.8803C226.935 72.6945 226.816 72.4883 226.685 72.2699C227.041 71.6112 227.231 70.9693 226.855 70.1947C226.714 69.9037 226.325 69.6891 226.004 69.7082C225.655 69.729 225.301 69.7446 224.946 69.758C224.283 68.9587 223.53 68.2412 222.724 67.8282C221.908 67.1383 221.081 66.4612 220.276 65.7696C220.048 65.573 219.818 65.3763 219.59 65.1796C219.589 65.1748 219.587 65.1683 219.585 65.1635C219.417 64.5525 219.228 63.9496 219.039 63.3435C218.921 62.9679 218.885 62.5746 218.519 62.3698C217.752 61.9427 216.574 61.875 215.695 61.8024C215.607 61.725 215.52 61.6493 215.433 61.5719C215.832 60.5112 215.761 59.3844 215.258 58.322C215.087 57.9609 214.492 57.7981 214.166 58.0367C213.412 58.588 212.518 58.7831 211.634 58.7025C210.335 57.7062 205.093 53.2012 204.283 52.7257C204.273 52.7086 204.265 52.6915 204.254 52.6746C203.799 51.9495 203.246 51.3672 202.624 50.9004C202.535 50.808 202.446 50.7155 202.358 50.6229C202.436 50.0702 202.641 49.5364 202.972 49.0899C203.007 49.0383 203.048 48.9883 203.088 48.94C203.667 48.2532 202.961 47.3698 202.152 47.7293C202.094 47.7551 202.036 47.7809 201.978 47.8083C201.356 48.0846 200.669 48.3849 199.953 48.6384C199.691 48.5405 199.424 48.4518 199.18 48.3542L196.572 47.3084C196.143 47.1363 195.689 46.9904 195.274 46.7881C195.129 45.8274 194.164 45.1975 193.161 45.2303C193.219 45.0459 193.305 44.8668 193.427 44.6971C193.463 44.6471 193.501 44.5988 193.542 44.552C194.057 43.9539 193.369 42.8449 192.632 43.3768C192.58 43.4139 192.527 43.451 192.475 43.4881C192.27 43.6314 192.06 43.7658 191.849 43.8961C191.509 43.7484 191.127 43.7147 190.727 43.8709C189.842 44.2167 189.025 44.5683 188.246 45.1103C188.214 45.1323 188.181 45.1509 188.149 45.1717C187.762 44.7055 187.148 44.3937 186.595 44.3971C186.583 44.3971 186.575 44.3969 186.565 44.3968C186.151 43.7682 185.393 43.4029 184.661 43.4918C184.71 42.5898 183.805 41.7849 182.98 41.6871C182.017 41.573 181.149 42.1306 180.86 43.0675C180.78 43.3283 180.7 43.5893 180.619 43.8503C179.871 43.4739 179.082 43.1855 178.258 43.0415C176.381 42.7136 174.545 43.0628 172.736 43.5825C172.556 43.6344 172.375 43.6878 172.194 43.741C171.936 43.4429 171.694 43.1378 171.463 42.8529C171.064 42.3612 170.105 42.7546 170.17 43.3865C170.215 43.8226 170.037 44.1363 169.751 44.3592C169.437 44.405 169.134 44.4188 168.676 44.4097C168.071 44.3974 167.796 44.3785 167.163 44.1326C166.868 44.0181 166.501 43.7171 166.329 43.447C165.671 42.4109 163.997 42.1319 163.201 43.1197C162.362 42.7536 161.303 43.2585 160.838 43.9704C160.594 44.3426 160.086 44.5507 159.446 44.7297C158.966 44.8638 158.475 44.9653 157.981 45.0542C157.762 44.7567 157.299 44.5573 156.959 44.8067C156.729 44.9761 156.506 45.1501 156.285 45.3284C154.587 45.5618 152.897 45.5702 151.277 44.9096C149.905 44.3502 148.646 45.8779 148.873 47.1604C148.475 47.3666 148.044 47.5038 147.652 47.7198C146.796 48.1915 146.093 48.9371 145.665 49.813C145.588 49.9699 145.519 50.1292 145.453 50.2892C145.133 50.5489 144.817 50.8156 144.508 51.0969C143.994 50.8341 143.481 50.5713 142.967 50.3086C142.583 50.1119 141.935 50.2489 141.859 50.7583C141.734 51.5966 141.432 52.2914 141 52.8733C139.597 53.6084 138.248 54.4338 136.956 55.351C135.471 55.8153 133.891 56.0861 132.593 56.3908C132.149 56.4956 131.906 57.0743 132.157 57.4596C132.422 57.8674 132.687 58.2753 132.951 58.6831C132.212 59.4021 131.518 60.1533 130.864 60.9303C129.042 63.0904 127.518 65.4585 126.154 67.9668C125.614 68.1845 125.074 68.4005 124.534 68.6181C124.013 68.8277 123.779 69.4306 124.201 69.8739C124.401 70.0851 124.581 70.3075 124.734 70.5413C123.97 71.8035 123.069 72.9545 121.81 73.7089C121.427 73.9378 121.139 74.2973 120.986 74.7052C120.855 74.7922 120.726 74.8857 120.598 74.9808C120.242 75.2484 120.027 75.832 120.444 76.1786C120.737 76.4236 121.012 76.7138 121.244 77.0345C121.295 77.2167 121.346 77.4005 121.398 77.5826C120.228 78.6563 119.255 79.904 118.524 81.3032C118.351 81.2758 118.173 81.2935 118.029 81.3999C116.723 82.3623 116.685 83.8954 117.21 85.2656C116.893 87.3306 117.097 89.4472 117.708 91.4478C116.904 92.2473 116.421 93.4016 116.224 94.5139C115.876 96.4677 115.852 99.4725 115.762 101.467C114.886 102.31 114.262 103.401 113.914 104.575C113.621 104.72 113.329 104.865 113.036 105.01C112.776 105.139 112.585 105.479 112.602 105.766C112.676 107.154 113.25 108.25 114.011 109.243C114.281 110.009 114.68 110.715 115.204 111.392C115.566 111.856 115.92 112.301 116.232 112.802C116.264 112.852 116.284 112.899 116.298 112.931C116.175 113.064 116.074 113.283 115.985 113.439C115.238 114.751 115.227 116.289 116.287 117.432C115.888 117.758 115.875 118.416 116.227 118.819C118.521 121.432 120.433 124.609 123.616 125.997C123.63 126.021 123.643 126.045 123.655 126.069C123.01 127.617 122.922 128.421 123.449 130.021C123.453 130.035 123.457 130.048 123.462 130.063C123.743 130.901 124.261 132.244 125.193 132.505C125.488 132.587 125.777 132.624 126.063 132.622C126.803 133.333 127.542 134.046 128.281 134.758C128.345 135.111 128.386 135.468 128.399 135.827C128.42 136.428 128.987 136.915 129.598 136.738C129.813 136.675 131.003 135.522 131.221 135.529C131.331 135.639 131.438 135.748 131.544 135.859C131.937 136.27 132.482 136.918 132.527 137.349C132.614 138.16 133.148 139.088 134.009 139.253C134.333 139.58 134.85 139.678 135.246 139.251C135.272 139.224 135.298 139.196 135.325 139.172C135.367 139.167 135.407 139.162 135.45 139.158C135.64 139.725 135.831 140.292 136.023 140.858C136.4 141.974 137.839 142.691 138.86 142.04C139.025 142.138 139.187 142.243 139.348 142.348C139.594 142.504 139.843 142.664 140.098 142.814C140.113 142.856 140.127 142.898 140.14 142.938C140.305 143.439 140.991 143.708 141.412 143.42C141.543 143.462 141.678 143.496 141.813 143.523C142.526 143.663 143.244 143.625 143.932 143.388C144.425 143.22 144.896 142.899 145.426 142.856C145.459 142.853 145.493 142.855 145.527 142.854C145.959 143.738 146.948 144.499 147.727 144.758C148.747 145.097 149.791 144.976 150.72 144.561C150.971 145.061 151.286 145.534 151.662 145.972C151.871 146.214 152.247 146.162 152.462 145.972C152.871 145.611 153.276 145.248 153.681 144.885C153.975 144.772 154.271 144.637 154.579 144.511C155.545 144.118 156.604 143.955 157.497 143.386C157.921 143.117 158.319 142.772 158.648 142.373C159.267 142.017 159.835 141.573 160.347 141.065C160.603 141.066 160.869 141.007 161.128 140.876C162.209 140.328 162.778 139.212 162.828 138.071C163.704 136.016 164.222 133.823 164.364 131.579C164.409 130.843 164.417 130.1 164.361 129.363C164.322 128.844 164.191 128.497 163.994 128.028C163.927 127.875 163.868 127.735 163.821 127.58C163.832 127.083 163.839 126.587 163.845 126.092C163.979 125.675 164.218 125.286 164.551 124.959C165.067 124.453 165.303 123.402 164.834 122.776C164.529 122.371 164.225 121.967 163.919 121.562C164.005 119.826 164.422 117.063 163.498 116.773C163.535 116.515 163.614 116.26 163.659 116.004C163.876 114.772 163.746 113.671 163.09 112.594C162.953 112.37 162.836 112.172 162.741 111.979C162.681 111.624 162.621 111.269 162.562 110.915C162.469 110.368 162.379 109.817 162.301 109.262C162.261 108.556 162.224 107.85 162.183 107.143C162.146 106.491 162.104 105.84 162.061 105.187C162.078 104.895 162.104 104.604 162.141 104.312C162.363 102.572 163.076 101.929 164.311 100.72C164.505 100.69 164.697 100.656 164.886 100.617C165.767 100.435 166.688 100.153 167.595 100.254C168.58 100.364 169.46 100.788 170.417 100.246C170.699 100.085 171.318 99.6401 171.371 99.2871C171.374 99.2645 171.379 99.2452 171.386 99.2307C171.452 99.221 171.538 99.213 171.591 99.2113C172.351 99.1855 173.076 99.4838 173.843 99.4016C174.749 99.3048 175.561 98.9034 176.094 98.3086C176.778 98.4763 177.476 98.552 178.186 98.4585C178.781 98.3811 179.314 98.1877 179.841 97.9008C180.224 97.6944 180.103 97.6348 180.52 97.8024C181.469 98.1861 182.327 98.6923 183.396 98.4295C183.95 98.2941 184.428 97.9959 184.831 97.5945C184.926 97.501 185.088 97.3607 185.196 97.2285C185.704 97.4848 186.981 98.0636 187.191 98.1152C187.786 98.2602 188.416 98.2377 188.995 98.0442C189.42 97.9024 189.94 97.5155 190.314 97.4365C190.797 97.3333 191.87 98.0039 192.447 98.2344C193.459 98.6391 194.531 98.739 195.556 98.3215C195.908 98.178 196.594 97.6058 196.857 97.6106C197.285 98.1377 198.482 101.022 198.84 102.074C200.294 106.33 200.67 119.618 199.999 123.008C199.973 123.108 199.946 123.207 199.919 123.306C199.094 126.255 198.236 129.253 196.857 132C195.556 134.589 193.757 136.92 191.175 138.334C188.499 139.801 185.356 140.186 182.346 139.988C180.408 139.862 178.503 139.474 176.628 138.987C175.648 138.734 174.677 138.452 173.71 138.158C173.288 138.031 172.86 137.912 172.446 137.763C171.715 137.5 171.332 137.479 170.632 137.816C169.995 138.123 169.832 139.027 170.164 139.596C170.703 140.525 171.693 140.589 172.648 140.86C173.621 141.136 174.597 141.4 175.58 141.637C177.463 142.088 179.377 142.435 181.307 142.594C184.763 142.883 188.324 142.438 191.47 140.934C191.825 140.763 192.168 140.581 192.499 140.384C192.376 140.555 192.252 140.726 192.126 140.895C191.777 141.364 192.035 142.162 192.525 142.419C192.68 142.499 192.835 142.577 192.992 142.653C193.013 142.702 193.036 142.752 193.062 142.802C193.509 143.699 194.447 144.227 195.402 144.456C196.537 144.727 197.807 144.535 198.962 144.502C200.032 144.469 201.102 144.437 202.17 144.405C202.422 144.398 202.674 144.39 202.927 144.382C204.197 144.344 205.466 144.306 206.735 144.268C207.866 144.234 207.813 144.321 208.875 143.87C209.349 143.666 209.737 143.38 210.063 142.997C210.267 142.907 210.464 142.804 210.653 142.686C211.261 142.309 211.801 141.803 212.299 141.245C213.144 141.511 214.329 141.265 214.494 140.205C214.759 138.511 216.967 137.787 217.998 136.562C218.831 135.574 219.425 134.28 219.395 133.037C221.493 132.024 222.634 129.356 222.901 127.093C223.025 126.044 223.006 124.92 223.185 123.853C223.264 123.768 223.335 123.677 223.395 123.581C223.922 122.731 224.381 121.856 224.785 120.959C225.335 120.564 225.996 120.321 226.688 120.281C228.388 120.182 228.708 117.895 227.087 117.344C227.079 117.34 227.073 117.339 227.065 117.335C227.504 116.239 227.467 114.942 226.934 113.903C226.956 113.791 226.977 113.679 226.998 113.567C227.908 112.591 228.43 111.236 228.372 109.915C228.788 109.623 229.253 109.398 229.762 109.258C230.55 109.042 230.554 108.084 229.972 107.655C229.738 107.483 229.544 107.281 229.382 107.059C229.785 105.853 229.627 104.459 228.804 103.469C229.326 102.801 229.848 102.134 230.37 101.467C230.716 101.025 230.899 100.275 230.37 99.8562C230.032 99.5869 229.694 99.3193 229.355 99.0517Z" fill="black"/>
<path fill-rule="evenodd" clip-rule="evenodd" d="M191.46 128.225C190.363 128.656 189.067 128.757 187.935 128.391C186.852 128.04 185.869 127.26 185.274 126.279C184.744 125.405 184.523 124.369 184.836 123.335C184.851 123.285 184.9 123.254 184.947 123.241C185.203 123.474 185.361 123.705 185.519 123.935C185.786 124.323 186.053 124.706 186.42 125.038C186.954 125.52 187.673 125.911 188.386 126.04C189.085 126.167 189.8 126.055 190.426 125.722C190.806 125.519 191.114 125.248 191.418 124.976C191.75 124.679 192.076 124.378 192.533 124.211C192.899 124.077 193.284 124.19 193.579 124.414C193.897 124.655 194.125 125.033 194.113 125.428C194.093 126.039 193.825 126.55 193.435 126.971C192.908 127.54 192.164 127.95 191.46 128.225ZM190.158 112.984C191.379 113.724 193.239 115.449 191.925 117.283C190.38 118.901 188.154 117.046 187.058 116.207C186.041 115.557 184.899 117.229 185.842 117.988C193.766 123.839 196.982 113.177 190.776 112.114C190.092 111.996 189.838 112.755 190.158 112.984ZM177.32 102.731C178.983 102.652 180.449 103.397 182.035 103.736C183.5 104.049 184.943 103.861 186.368 103.462C188.68 102.816 189.636 106.347 187.356 107.035C185.694 107.536 183.946 107.57 182.241 107.312C180.727 107.083 179.458 106.347 178.014 105.92C176.775 105.552 175.318 105.705 174.009 105.878L173.502 105.946C172.747 106.047 171.988 106.149 171.24 106.296C170.592 106.424 169.945 106.658 169.283 106.685C169.207 106.688 169.144 106.591 169.191 106.526C169.96 105.473 171.442 104.643 172.621 104.088L172.701 104.051C174.156 103.375 175.699 102.808 177.32 102.731ZM176.71 110.494L176.71 110.458C176.712 109.43 177.312 107.083 178.796 107.083C179.723 107.083 180.286 108.68 180.383 110.327L180.387 110.394C180.43 111.418 180.148 113.655 178.796 113.655C177.43 113.655 176.724 111.536 176.71 110.494V110.494ZM198.557 110.494L198.557 110.458C198.555 109.43 197.954 107.083 196.47 107.083C195.566 107.083 195.009 108.601 194.891 110.203L194.883 110.327C194.825 111.316 195.088 113.655 196.47 113.655C197.837 113.655 198.543 111.536 198.557 110.494V110.494ZM198.534 101.479L198.64 101.482C200.374 101.541 202.158 102.566 202.621 104.287C202.645 104.376 202.534 104.436 202.469 104.375C201.043 103.044 199.125 104.316 197.698 104.983L197.173 105.224C195.332 106.078 193.239 107.082 191.195 106.446C190.225 106.144 189.608 105.149 189.885 104.144C190.131 103.25 191.213 102.499 192.15 102.822L192.193 102.837C192.954 103.128 193.89 102.833 194.677 102.543L195.322 102.301C196.361 101.908 197.404 101.469 198.534 101.479V101.479Z" fill="black"/>
</g>
</svg>
